<?xml version="1.0" encoding="utf-8"?>
<!-- Generator: Adobe Illustrator 23.0.0, SVG Export Plug-In . SVG Version: 6.00 Build 0)  -->
<svg version="1.1" id="Layer_1" xmlns="http://www.w3.org/2000/svg" xmlns:xlink="http://www.w3.org/1999/xlink" x="0px" y="0px"
	 viewBox="0 0 3119 1106.2" style="enable-background:new 0 0 3119 1106.2;" xml:space="preserve">
<style type="text/css">
	.st0{fill:#003399;}
	.st1{fill-rule:evenodd;clip-rule:evenodd;fill:#003399;}
</style>
<g>
	<path class="st0" d="M587.9,77.9c132.3,0.5,269,31.8,409.4,94.4l6.6,2.8l2.4,6.6v0.5l0,0c11.4,34.6,21.3,69.3,29.4,103.9
		c8.1,34.6,14.7,69.3,19.4,103.9c6.6,45.5,10.4,90.6,11.4,136.1v53.1c-2.8,114.8-22.8,229.6-60.2,344.4l-2.4,6.6l-6.6,2.8
		c-132.8,58.8-266.1,87.8-398.9,87.8c-3.3,0-6.6,0-10.4,0v-32.3c3.8,0,7.1,0,10.4,0c126.2,0,252.8-27,379.5-82.1
		c55-170.8,70.2-341.5,45.5-512.3c-4.7-33.2-11.4-67.4-19.4-101c-7.1-31.3-16.1-63.1-26.1-94.4c-134.2-58.8-264.2-88.2-389.9-88.7
		V77.9z M198.4,172.8C322.7,109.2,451.7,77.9,585,77.9c0.9,0,1.9,0,2.8,0v32.3c-0.9,0-1.9,0-2.8,0c-126.7,0-248.6,29.4-366.7,88.7
		c-47.9,113.8-74.9,229.6-76.4,347.7c-1.9,117.2,22.3,237.2,75.9,359.6c123.3,53.6,246.7,81.1,370,82.5v32.3
		c-129.5-1.4-259-30.4-388.5-87.8l-8.5-8.1c-55-123.3-80.6-244.8-81.1-363.8v-8.5c0-2.4,0-4.3,0-6.6
		c1.4-123.8,30.4-245.7,81.1-365.2L198.4,172.8z"/>
	<path class="st1" d="M596.4,812.7c-6.6-90.6-2.4-185-29.4-271.3C541.9,460.7,446.5,414.7,444.6,326
		c-1.9-69.3,50.8-149.4,149.4-149.4c92.5-0.5,149.9,66.9,156.5,141.8c8.1,86.8-97.2,145.2-124.8,227.7
		C597.4,630.5,605.4,724,596.4,812.7z"/>
	<path class="st1" d="M632.9,790.9c-3.8-78.7-3.8-154.2,18-221c24.2-75.9,74.5-139.9,151.3-160.8c52.7-14.2,130,47.4,117.6,110.5
		c-10.4,50.8-61.2,110.5-142.8,117.2c-37.9,3.3-54.1,33.7-77.8,51.2c106.3-10.4,175-52.2,222.9-95.8c7.1,37,11.9,99.1-17.1,120.5
		c-56.9,40.3-109.6,7.6-176.5,26.6C691.3,750.1,668,773.8,632.9,790.9z"/>
	<path class="st1" d="M560.4,790.9c4.3-78.7,3.8-154.2-17.6-221c-24.2-75.9-74.5-139.9-151.3-160.8
		c-52.7-14.2-130.4,47.4-117.6,110.5c10.4,50.8,61.2,110.5,142.8,117.2c37.5,3.3,54.1,33.7,77.8,51.2
		c-106.7-10.4-175-52.2-222.9-95.8c-7.1,37-11.9,99.1,17.1,120.5c56.9,40.3,109.6,7.6,176.5,26.6
		C502.5,750.1,525.3,773.8,560.4,790.9z"/>
	<path class="st1" d="M813.2,908v-12.8l9.5-2.4l-9.5-14.2v-23.7l42.7,59.3l-15.2,3.8l-10.4-14.7L813.2,908z M813.2,854.9v23.7
		l-6.6-9.5l-2.8,28.5l9.5-2.4V908l-10.9,2.4l-1.9,17.6l-15.2,3.8l10-77.3l15.2-3.8L813.2,854.9L813.2,854.9z M671.8,949.3V937h3.3
		c5.2-0.5,8.5-0.9,10-1.4c1.9-0.5,3.8-1.9,4.7-3.3c1.4-1.9,1.9-3.8,1.9-6.2c-0.5-2.4-0.9-4.3-2.4-5.7c-0.9-1.4-2.8-2.4-4.7-2.8
		c-1.9-0.5-6.2-0.5-12.8,0v-12.3c3.8,0,6.2-0.5,7.1-0.5c2.4-0.5,4.3-1.9,5.7-3.3c1.4-1.4,1.9-3.3,1.4-5.7c0-2.4-0.9-4.3-2.4-5.2
		c-0.9-1.4-2.8-2.4-5.7-2.4c-0.9,0-2.8,0-6.2,0.5v-12.3c5.2-0.5,9-0.5,11.4,0c2.8,0,5.7,0.9,8.1,2.4c2.4,0.9,4.3,2.8,6.2,5.2
		c1.4,2.4,2.4,5.2,2.8,8.5s-0.5,6.6-1.9,9.5c-1.4,2.8-3.8,5.2-7.1,7.1c4.7,0.9,8.5,2.8,10.9,5.7c2.8,2.8,4.3,6.2,4.7,10.4
		c0,3.3-0.5,6.6-1.4,10c-1.4,3.3-3.3,5.7-5.7,8.1c-2.8,1.9-5.7,3.3-9.5,4.3c-2.4,0.5-8.5,0.9-17.6,1.9H671.8L671.8,949.3z
		 M761.5,909.4l14.7,1.9c-0.9,8.1-3.3,14.7-7.6,19.4c-4.3,4.3-10.4,7.6-18,9c-9.5,1.4-18-0.5-25.1-5.7c-7.6-5.7-11.9-13.8-14.2-25.1
		c-1.9-11.9-0.5-21.8,4.7-29.4c4.7-7.6,12.3-12.3,22.3-14.2c9-1.4,16.1,0,22.8,4.3c3.8,2.4,7.1,6.2,9.5,11.9l-13.8,5.7
		c-1.4-3.3-3.8-6.2-6.6-7.6c-3.3-1.9-6.6-2.4-10.4-1.9c-5.2,0.9-9,3.8-11.9,8.1c-2.8,4.7-3.3,10.9-1.9,19.4c1.9,9,4.7,15.2,8.5,18.5
		c3.8,3.3,8.5,4.7,13.8,3.8c3.8-0.9,6.6-2.8,9-5.7C759.6,918.9,761,914.7,761.5,909.4z M671.8,876.2v12.3c-1.9,0-3.8,0.5-6.2,0.5
		l-8.5,0.9l1.4,16.6l10-0.9c0.9,0,2.4,0,3.3-0.5v12.3c0,0,0,0-0.5,0l-11.4,0.9l1.4,19.4l10.4-0.9v12.3l-23.7,2.4l-6.6-72.6l28.9-2.4
		C670.9,876.2,671.4,876.2,671.8,876.2L671.8,876.2z M580.3,924.1v-12.3c3.3,0,5.2-0.5,6.6-0.9c1.9-0.5,3.3-1.9,4.7-3.3
		c0.9-1.9,1.4-3.8,1.4-5.7c0.5-2.8-0.5-4.7-1.9-6.6c-1.4-1.9-3.3-2.8-5.7-3.3c-1.4,0-2.8-0.5-5.2-0.5v-12.3c7.1,0,11.4,0.5,13.8,1.4
		c4.3,0.9,7.6,3.3,10.4,7.1c2.8,3.8,4.3,8.5,3.8,14.2c0,4.3-0.9,8.1-2.4,11.4c-1.9,2.8-3.8,5.2-6.2,7.1c-2.8,1.4-5.2,2.4-8.1,3.3
		C588.8,924.1,585,924.1,580.3,924.1z M580.3,879.1v12.3c-1.4,0-3.3,0-5.7,0l-7.1-0.5v20.9h7.6c1.9,0,3.8,0,5.2,0v12.3
		c-0.9,0-2.4,0-3.8,0H567l-0.5,27.5l-14.7-0.5l1.4-72.6l23.2,0.5C577.9,879.1,579.3,879.1,580.3,879.1L580.3,879.1z M443.2,917
		v-22.3c4.3,0.9,7.1,0.9,8.5,0.9c1.9-0.5,3.3-0.9,4.7-2.4c0.9-1.4,1.9-2.8,2.4-5.2c0.5-2.4,0-4.3-0.9-6.2c-0.9-1.9-2.8-2.8-5.2-3.8
		c-0.9-0.5-4.3-0.9-9.5-1.9v-12.3l6.2,0.9c7.6,1.4,12.8,2.8,16.1,4.7s5.7,4.7,7.1,8.5c1.4,3.3,1.9,7.6,0.9,11.9
		c-0.9,5.2-3.3,9.5-7.1,12.3c-3.3,2.8-8.5,4.3-15.2,4.3c2.8,2.4,5.2,4.7,6.6,7.1c1.9,2.8,3.8,7.1,6.2,13.3l6.2,15.7l-17.1-3.3
		l-7.6-17.6C444.6,920.3,444.2,918.5,443.2,917L443.2,917z M484.9,872l14.2,1.4l-3.3,39.4c-0.5,6.2-0.5,10.4-0.5,11.9
		c0.5,3.3,1.9,5.7,3.8,7.6c2.4,2.4,5.2,3.3,9.5,3.8c4.3,0.5,7.6-0.5,9.5-1.9c2.4-1.4,3.8-3.3,4.7-5.7c0.5-2.4,0.9-6.6,1.4-12.3
		l3.3-40.3l14.7,1.4l-3.3,37.9c-0.5,9-1.4,15.2-2.8,18.5c-0.9,3.3-2.8,6.6-4.7,8.5c-2.4,2.4-5.7,4.3-9.5,5.2
		c-3.3,1.4-8.1,1.4-13.8,0.9c-7.1-0.5-12.3-1.9-15.7-3.8c-3.3-1.9-6.2-4.3-8.1-6.6c-1.9-2.8-2.8-5.7-3.3-8.5
		c-0.5-4.3-0.5-10.4,0-18.5L484.9,872z M369.7,893.3l2.8-11.9l30.8,8.1l-7.6,28c-3.8,2.4-8.5,3.8-15.2,4.3c-6.2,0.5-11.9,0-17.6-1.4
		c-7.6-1.9-13.8-5.2-18-9.5c-4.7-4.7-7.6-10.4-9-16.6c-0.9-6.6-0.9-13.3,0.9-19.9c1.9-7.1,5.2-13.3,10-18.5c4.3-4.7,10-7.6,16.6-9
		c5.2-1.4,11.4-0.9,18,0.9c8.5,2.4,15.2,5.7,19,10.9c3.8,4.7,5.7,10.9,5.2,17.6l-14.7-0.9c0-3.8-0.9-7.1-3.3-10
		c-2.4-2.4-5.2-4.7-9.5-5.7c-6.2-1.4-11.4-0.9-16.1,1.9c-4.7,2.8-8.1,8.5-10.4,16.1c-2.4,8.5-1.9,15.2,0.5,20.4
		c2.8,5.2,7.1,8.5,12.8,10c3.3,0.9,6.2,0.9,9.5,0.9c3.3-0.5,6.2-1.4,9-2.4l2.4-9L369.7,893.3L369.7,893.3z M443.2,863.9l-24.7-4.3
		l-12.3,71.6l14.2,2.4l5.2-29.9l3.3,0.5c3.3,0.5,5.7,1.4,7.1,1.9c1.4,0.9,2.4,2.4,3.8,3.8c0.5,1.4,1.9,3.8,3.3,7.1v-22.3
		c-1.4,0-2.8-0.5-4.7-0.5l-10.4-1.9l2.8-18l11.4,1.9c0.5,0,0.9,0,0.9,0V863.9z"/>
	<path class="st1" d="M2703.9,775.2V641.4h58.8V406.2l-58.8,117.6V230.2h231l58.8,676.4h-231V775.2H2703.9z M2703.9,230.2v293.6
		l-58.8,117.6h58.8v133.8h-111l-45.5,124.3h-143.3V744.8L2564,400h-32.7l91.1-169.8H2703.9L2703.9,230.2z M2404.2,455.5l71.6-169.8
		l-71.6-39.8V455.5z M1834.5,390.5c3.3-19.4,3.3-38.4,0-56.4V390.5L1834.5,390.5z M2404.2,245.8v209.7l-9.5,22.8
		c-141.4-101-350.1-9-361.9,97.7c-11.9,111.5,73,201.6,289.8,134.2l-74.5,199.2c-286,31.8-397-81.6-413.6-213.9v-74.9
		c4.3-34.6,13.3-68.3,25.6-99.6c140.9-350.1,369.5-271.3,456.3-278l12.8-38.9L2404.2,245.8L2404.2,245.8z M2404.2,744.8l-71.6,154.6
		h71.6V744.8z M1577.4,895.2c153.2-30.4,303.6-214.4,152.7-361c58.8-31.3,95.3-87.8,104.4-143.7v-56.4
		c-10.4-58.3-55.5-105.8-140.4-107.2l-116.7-2.4v130h48.4c51.7,0,45.1,133.8-19.4,133.8h-28.9v102.5c69.7,13.3,45.1,110,0,139.9
		V895.2L1577.4,895.2z M1834.5,620.6v74.9C1831.6,670.8,1831.6,645.7,1834.5,620.6z M1375.3,220.2l-94.4,183.1l42.2-3.3
		l-113.8,499.5h325.9c14.2,0,28-1.4,42.2-4.3V730.6c-8.1,5.7-17.1,9-26.1,9h-117.2l38.9-150.4h87.8c6.2,0,11.9,0.5,16.6,1.4V488.2
		h-81.6l32.7-133.8h48.9v-130L1375.3,220.2z"/>
</g>
</svg>
